<?xml version="1.0" standalone="no"?>
<!DOCTYPE svg PUBLIC "-//W3C//DTD SVG 20010904//EN"
 "http://www.w3.org/TR/2001/REC-SVG-20010904/DTD/svg10.dtd">
<svg version="1.0" xmlns="http://www.w3.org/2000/svg"
 width="1280.000000pt" height="1280.000000pt" viewBox="0 0 1280.000000 1280.000000"
 preserveAspectRatio="xMidYMid meet">
<metadata>
Created by potrace 1.15, written by Peter Selinger 2001-2017
</metadata>
<g transform="translate(0.000000,1280.000000) scale(0.100000,-0.100000)"
fill="#000000" stroke="none">
<path d="M6100 12794 c-463 -31 -741 -68 -1090 -145 -865 -191 -1718 -582
-2430 -1114 -1404 -1050 -2317 -2613 -2529 -4335 -32 -256 -41 -384 -48 -665
-21 -907 151 -1803 509 -2647 74 -175 262 -548 358 -713 924 -1578 2489 -2696
4270 -3050 1522 -303 3088 -50 4426 714 377 215 722 460 1049 745 152 132 453
434 592 592 1184 1351 1743 3107 1558 4893 -67 639 -225 1250 -480 1851 -72
168 -261 544 -355 705 -952 1625 -2575 2756 -4420 3079 -352 62 -624 86 -1030
90 -179 2 -350 2 -380 0z m575 -574 c1305 -69 2469 -526 3475 -1364 170 -142
523 -490 669 -661 691 -808 1151 -1787 1326 -2823 204 -1204 23 -2447 -515
-3537 -290 -588 -639 -1073 -1110 -1546 -341 -342 -649 -588 -1044 -834 -782
-489 -1636 -773 -2586 -861 -252 -24 -728 -24 -980 0 -993 91 -1876 395 -2685
924 -1103 721 -1931 1787 -2346 3022 -414 1234 -408 2535 16 3767 227 660 577
1276 1049 1843 156 189 521 553 711 711 598 497 1227 846 1954 1084 652 213
1385 311 2066 275z"/>
<path d="M3392 9560 c-76 -36 -168 -124 -235 -226 l-47 -72 0 -281 c0 -154 3
-281 8 -281 4 1 25 30 47 66 22 36 70 94 107 130 112 108 220 142 348 110 125
-32 230 -102 495 -331 251 -216 357 -284 485 -311 161 -33 303 45 435 239 l55
82 -2 285 -3 284 -44 -68 c-126 -193 -283 -280 -444 -246 -122 25 -248 108
-518 342 -185 159 -253 209 -358 261 -78 39 -92 42 -175 45 -84 3 -96 1 -154
-28z"/>
<path d="M9058 9566 c-118 -48 -198 -104 -403 -281 -201 -173 -231 -197 -318
-253 -111 -73 -175 -95 -272 -96 -70 -1 -88 3 -145 30 -76 36 -156 112 -226
215 l-49 71 -3 -283 -2 -284 55 -82 c132 -194 274 -272 435 -239 128 27 235
95 485 311 266 229 370 299 495 331 127 32 236 -2 346 -108 36 -34 87 -94 112
-133 l47 -70 3 283 2 283 -43 67 c-70 109 -149 187 -229 227 -64 32 -79 35
-152 35 -62 0 -95 -6 -138 -24z"/>
<path d="M8503 8216 c-185 -45 -339 -197 -388 -382 -21 -78 -20 -224 1 -294
28 -96 74 -172 143 -241 101 -100 218 -149 360 -149 408 -1 669 433 478 794
-108 206 -371 326 -594 272z"/>
<path d="M4025 8210 c-266 -42 -455 -263 -455 -529 0 -149 52 -275 154 -376
290 -287 774 -159 890 235 24 79 22 218 -3 301 -38 122 -149 257 -257 312
-100 51 -230 73 -329 57z"/>
<path d="M3821 4380 c-173 -88 -316 -162 -319 -164 -6 -7 73 -154 149 -274
495 -793 1331 -1336 2264 -1471 331 -48 635 -48 970 0 958 137 1804 702 2304
1537 66 111 114 202 109 207 -2 2 -145 76 -320 164 l-316 162 -47 -87 c-138
-252 -340 -502 -558 -690 -624 -537 -1483 -735 -2297 -529 -569 144 -1070 484
-1412 960 -56 78 -120 180 -193 309 l-20 35 -314 -159z"/>
</g>
</svg>
